<svg id="icon" class="icon" xmlns="http://www.w3.org/2000/svg" xmlns:xlink="http://www.w3.org/1999/xlink">
    <defs>

        <style>
        svg{fill: none;}
            svg .icon { display: none }
            svg .icon:target { display: inline }

            .SvgLogo_st0_El0cN {
    fill: none
}

.SvgLogo_st1_YgqSe {
    fill: #0095ff
}

.SvgLogo_st2_Thlp3 {
    fill: #fff
}

.SvgLogo_st3_arz6m {
    fill: #0095ff
}

.SvgLogo_st4_WmLRg,.SvgLogo_st5_Od0_b {
    fill: #fff;
}
        </style>
    </defs>

<svg viewBox="0 0 35 35">
 <g id="ico-lock" class="icon">

	<path d="M26.76 16.08H9.62a1.86 1.86 0 00-1.85 1.85v7.37a6.43 6.43 0 006.41 6.42H22a6.3 6.3 0 006.28-6.28v-7.86a1.5 1.5 0 00-1.52-1.5zm-8.45 8.78v1.74a.57.57 0 01-.57.54.58.58 0 01-.58-.54v-1.75a2.42 2.42 0 01-1.87-2.39 2.46 2.46 0 114.92 0 2.42 2.42 0 01-1.9 2.39zM18.06 4.23h-.12A6.75 6.75 0 0011.22 11v4h1.13v-4.12A5.46 5.46 0 0114 7a5.56 5.56 0 013.93-1.61H18A5.62 5.62 0 0123.52 11v3.89h1.13v-4a6.72 6.72 0 00-6.59-6.66z"></path>
</g>
</svg>

<svg viewBox="0 0 15 20" >
 <g id="ico-mobile" class="icon">

	<path fill-rule="evenodd" clip-rule="evenodd" d="M12 0c1.657 0 3 1.28 3 2.857v14.286C15 18.72 13.657 20 12 20H3c-1.657 0-3-1.28-3-2.857V2.857C0 1.28 1.343 0 3 0h9zM4.5 1.429v.428a1 1 0 001 1h4a1 1 0 001-1V1.43H12l.175.01c.746.082 1.325.686 1.325 1.418v14.286l-.01.166c-.087.71-.72 1.262-1.49 1.262H3l-.175-.01c-.746-.082-1.325-.686-1.325-1.418V2.857l.01-.166c.087-.711.72-1.262 1.49-1.262h1.5z" fill="#fff"></path>
</g>
</svg>


	<svg viewBox="0 0 448 512">
 <g id="ico-arrow" class="icon">
<path d="M218.101 38.101L198.302 57.9c-4.686 4.686-4.686 12.284 0 16.971L353.432 230H12c-6.627 0-12 5.373-12 12v28c0 6.627 5.373 12 12 12h341.432l-155.13 155.13c-4.686 4.686-4.686 12.284 0 16.971l19.799 19.799c4.686 4.686 12.284 4.686 16.971 0l209.414-209.414c4.686-4.686 4.686-12.284 0-16.971L235.071 38.101c-4.686-4.687-12.284-4.687-16.97 0z"></path>
	</g>
	</svg>


<svg viewBox="0 0 17 16">
 <g id="ico-present-bonus" class="icon">

	<path fill-rule="evenodd" clip-rule="evenodd" d="M4.462 1.662c-.035-.503.341-.916.909-.887C5.9.8 6.705 1.232 7.462 2.62H7.146c-.47.026-1.173-.006-1.754-.177-.611-.18-.908-.449-.93-.782zm3.522.37C7.188.686 6.257.072 5.408.03 4.402-.02 3.652.758 3.719 1.714c.059.842.805 1.252 1.464 1.445.684.2 1.472.234 1.994.207H8.798c.528.027 1.327-.006 2.02-.207.664-.192 1.421-.6 1.481-1.445.068-.961-.695-1.733-1.707-1.684-.856.043-1.8.654-2.608 2.002zm3.572-.37c.035-.497-.343-.916-.927-.887-.541.026-1.358.46-2.125 1.846H8.829c.478.026 1.192-.006 1.782-.177.623-.18.922-.452.946-.782z" fill="#E8B2FF"></path><path fill-rule="evenodd" clip-rule="evenodd" d="M4.322 4.178A2.484 2.484 0 001.84 6.662v5.747a2.484 2.484 0 002.483 2.483h7.355a2.484 2.484 0 002.483-2.483V6.662a2.484 2.484 0 00-2.483-2.484H4.322zm5.328 6.137l.864-.875a.573.573 0 00.137-.58.542.542 0 00-.437-.382L9.02 8.297 8.486 7.17a.538.538 0 00-.485-.314H8a.54.54 0 00-.486.314L6.98 8.297l-1.192.18a.546.546 0 00-.44.383.576.576 0 00.138.58l.864.875-.204 1.238a.572.572 0 00.216.552.527.527 0 00.318.109.523.523 0 00.251-.067L8 11.563l1.066.584a.517.517 0 00.571-.042.569.569 0 00.217-.552l-.204-1.238z" fill="#fff"></path>
</g>
</svg>

<svg viewBox="0 0 39 39">
 <g id="ico-windows" class="icon">
	<path fill="#FFF" d="M0 5.496l15.816-2.154.007 15.256-15.809.09L0 5.496zm15.808 14.86l.013 15.269L.012 33.45V20.253l15.796.103zM17.726 3.06L38.696 0v18.404l-20.97.166V3.06zM38.7 20.499l-.005 18.322-20.97-2.96-.03-15.396 21.005.034z"></path>
</g>
</svg>

<svg viewBox="0 0 11 12">
 <g id="ico-android" class="icon">
	<path d="M1.54 4.637v3.095c0 .411-.324.74-.736.74-.408 0-.804-.331-.804-.74V4.637c0-.404.396-.735.804-.735.404 0 .735.331.735.735zm.288 4.196a.79.79 0 00.791.791h.532l.008 1.633c0 .986 1.475.978 1.475 0V9.624h.995v1.633c0 .98 1.483.984 1.483 0V9.624h.54a.788.788 0 00.785-.791V4.038H1.828v4.795zm6.628-5.054H1.8c0-1.144.684-2.138 1.7-2.657L2.987.18c-.075-.13.115-.214.179-.101l.519.951a3.61 3.61 0 012.894 0l.517-.95c.067-.115.254-.03.179.102l-.51.94c1.007.519 1.691 1.513 1.691 2.657zM3.894 2.296a.28.28 0 00-.28-.28.277.277 0 00-.273.28c0 .152.123.28.272.28a.28.28 0 00.281-.28zm3.03 0a.279.279 0 00-.272-.28.28.28 0 100 .56c.15 0 .273-.128.273-.28zm2.534 1.606a.733.733 0 00-.735.735v3.095c0 .411.332.74.735.74.412 0 .805-.331.805-.74V4.637c0-.412-.396-.735-.805-.735z" style="fill:#31bc69;"></path>
</g>
</svg>

	<svg viewBox="0 0 19 23">
 <g id="ico-ios" class="icon">

		<path d="M15.86 11.93c-.01-1.85.827-3.246 2.52-4.275-.947-1.355-2.379-2.101-4.269-2.247-1.789-.141-3.744 1.043-4.46 1.043-.756 0-2.49-.993-3.85-.993C2.989 5.503 0 7.701 0 12.171c0 1.32.242 2.686.726 4.092.645 1.85 2.973 6.386 5.402 6.31 1.27-.03 2.167-.902 3.82-.902 1.603 0 2.435.902 3.85.902 2.45-.035 4.557-4.158 5.172-6.012-3.286-1.547-3.11-4.536-3.11-4.632zm-2.852-8.276C14.384 2.02 14.258.534 14.218 0c-1.215.07-2.621.827-3.423 1.759-.882.998-1.4 2.233-1.29 3.623 1.315.101 2.515-.574 3.503-1.728z" style="fill: #ddd;"></path>
	</g>
	</svg>


												<svg viewBox="0 0 512 512">
 <g id="ico-ru" class="icon">

    <path fill="#f0f0f0" d="M 0 0 H 512 V 170.666 H 0 z"></path>
    <path fill="#0052b4" d="M 0 170.666 H 512 V 341.333 H 0 z"></path>
    <path fill="#d80027" d="M 0 341.333 H 512 V 512 H 0 z"></path>
</g>
  </svg>

                	<svg viewBox="0 0 384 512" >
 <g id="ico-plus" class="icon">

                                <path d="M368 224H224V80c0-8.84-7.16-16-16-16h-32c-8.84 0-16 7.16-16 16v144H16c-8.84 0-16 7.16-16 16v32c0 8.84 7.16 16 16 16h144v144c0 8.84 7.16 16 16 16h32c8.84 0 16-7.16 16-16V288h144c8.84 0 16-7.16 16-16v-32c0-8.84-7.16-16-16-16z"></path>
                            </g>
                          </svg>

                    	<svg viewBox="0 0 970 493">
 <g id="ico-logo" class="icon">

                            <rect x="0.1" y="0" fill="none"></rect>
                            <path d="
          M235,207.3c3.6-17.3-2.9-29.7-14.5-37.8c-10.6-7.1-24-8.1-38.2-1.1L123.3,195
          c-14.8,6.7-21.2,24-14.8,38.5c6.7,14.8,23.7,21.2,38.5,14.8l7.8-3.6l-12.7,69c-3.6,20.8,9.9,37.8,28.3,41.4
          c19.5,3.6,38.5-9.2,41.7-28.7L235,207.3z
      " fill="#0095ff"></path>
                            <path d="
          M771.7,164.4c-32.5-4.7-65.3,14.3-77.8,41.1l2.1-11.7c5.3-23.7-4.6-30-21.5-30h-21.9
          c-20.8,0-25.5,11.3-28,24.4l-25.5,141.4c-2.1,9.6-0.7,26.2,18,26.2h30.4c18,0,21.5-14.1,24-27.6l12.3-67.9
          c2.9-15.5,5.3-23,10.6-28.7c8.1-9.2,24.4-13.4,35.7-4.2c6.7,5.6,
          9.2,15.2,7.4,28.7l-12.3,73.5c-2.7,16.3,4.2,26.2,17.7,26.2h30.4
          c17.3,0,20.8-13.4,23.3-27.6l17.8-92.1C822.7,202.9,811,170.1,771.7,164.4z
      " fill="#eee"></path>
                            <ellipse cx="576.8" cy="110.7" rx="35" ry="34.7" fill="#0095ff"></ellipse>
                            <path d="
          M579,328c-2.5,14.8-6.7,27.6-24,27.6h-30.7c-14.8,0-20.2-11-17.3-25.5L532.2,188
          c2.5-15.2,9.2-24.4,28-24.4h23.3c19.8,0,24.7,9.6,20.5,30L579,328z
      " fill="#eee"></path>
                            <path d="
          M241.2,163.6c7.8,9.2,17,20.5,12.3,48.1l-12,64.8l2.1,52c0.4,18.8,9.6,26.9,25.1,26.9h39.6
          c12.3,0,17.7-9.6,22.6-21.5l30-73.9l3.2,70.7c0.4,15.5,8.1,25.1,22.6,
          25.1h44.9c12.7,0,18-7.8,23.7-21.5l57.6-141.4
          c6.3-14.5,2.5-29-13.1-29h-28.7c-10.6,0-18,3.6-22.3,
          13.8l-38.9,94.6l-3.6-84.5c-0.7-18-9.2-24-19.5-24h-29.3
          c-11.7,0-18.4,4.6-21.9,13.4l-38.9,95.5l-3.6-87c-0.4-16.3-6-21.9-19.1-21.9H249H241.2L241.2,163.6z
      " fill="#eee"></path>
  </g>
                        </svg>

</svg>



